<?xml version="1.0" standalone="no"?>
<!DOCTYPE svg PUBLIC "-//W3C//DTD SVG 20010904//EN"
 "http://www.w3.org/TR/2001/REC-SVG-20010904/DTD/svg10.dtd">
<svg version="1.0" xmlns="http://www.w3.org/2000/svg"
 width="1280.000000pt" height="640.000000pt" viewBox="0 0 1280.000000 640.000000"
 preserveAspectRatio="xMidYMid meet">
<metadata>
Created by potrace 1.15, written by Peter Selinger 2001-2017
</metadata>
<g transform="translate(0.000000,640.000000) scale(0.100000,-0.100000)"
fill="#000000" stroke="none">
<path d="M10790 5660 c-1489 -407 -5423 -1481 -6560 -1792 -58 -15 -133 -35
-168 -44 -34 -9 -61 -19 -58 -21 2 -2 80 14 173 36 156 37 729 172 2773 651
448 105 1216 285 1705 400 856 201 2647 621 3057 717 109 26 200 44 203 41 3
-3 -148 -262 -335 -576 -187 -314 -340 -575 -340 -580 0 -5 227 -142 505 -303
278 -161 505 -296 505 -299 0 -3 -218 -199 -484 -435 l-484 -430 379 -380
c208 -209 379 -383 379 -386 0 -3 -15 -3 -32 -2 -18 2 -640 44 -1383 93 -742
50 -2227 149 -3299 220 -1072 72 -1951 129 -1953 127 -2 -2 31 -7 74 -11 71
-6 1534 -143 2313 -216 173 -16 653 -61 1065 -100 413 -39 867 -81 1010 -95
143 -14 478 -45 745 -70 629 -59 890 -83 1603 -151 324 -30 593 -54 598 -52 6
2 -1221 929 -1325 1001 -8 5 -6 10 4 17 102 64 1238 855 1235 860 -2 3 -301
143 -664 310 -364 167 -661 307 -661 310 0 3 311 381 691 840 380 459 695 841
701 848 6 6 7 11 2 11 -5 -1 -893 -243 -1974 -539z"/>
<path d="M2317 4565 c-235 -470 -431 -855 -436 -855 -23 0 -1864 -260 -1868
-264 -4 -3 258 -264 1145 -1141 l202 -200 -24 -140 c-14 -77 -75 -419 -135
-760 -61 -341 -124 -698 -141 -794 -17 -96 -29 -177 -28 -181 2 -3 383 191
847 432 l843 439 397 -212 c1115 -596 1273 -680 1280 -677 4 2 -62 417 -146
923 -84 506 -152 930 -150 941 2 17 879 877 1305 1278 34 33 61 60 60 62 -2 1
-426 66 -943 144 -517 79 -941 143 -942 144 -1 1 -187 384 -414 851 -226 468
-414 853 -418 857 -3 4 -199 -377 -434 -847z m702 -160 c183 -418 336 -763
339 -767 4 -4 364 -58 799 -120 436 -62 792 -116 790 -120 -1 -3 -265 -279
-587 -612 -322 -333 -586 -614 -588 -624 -1 -9 49 -395 113 -856 63 -462 113
-841 112 -842 -1 -2 -308 168 -682 377 -374 209 -692 387 -706 394 -25 13 -53
-1 -750 -399 -398 -227 -725 -412 -727 -411 -1 1 54 308 122 681 68 373 139
759 157 857 l32 179 -50 51 c-317 329 -1073 1141 -1066 1147 4 4 161 32 348
63 883 147 1241 209 1247 215 3 4 174 357 379 785 205 427 376 774 379 770 4
-5 156 -350 339 -768z"/>
<path d="M3968 3793 c7 -3 16 -2 19 1 4 3 -2 6 -13 5 -11 0 -14 -3 -6 -6z"/>
</g>
</svg>
