<?xml version="1.0" encoding="UTF-8"?>
<svg id="Calque_1" data-name="Calque 1" xmlns="http://www.w3.org/2000/svg" viewBox="0 0 1929 189.6">
  <defs>
    <style>
      .cls-1 {
        fill: #fafae0;
        stroke-width: 0px;
      }
    </style>
  </defs>
  <path class="cls-1" d="M1920,5.48v178.2c-.48-.12-.98-.18-1.5-.18-2.7,0-5.02,1.65-6,4-.04.1-.78,1.74-2.5,2-1.4.21-2.85-.59-3.5-2-1.01-2.42-3.38-4-6-4s-5.02,1.65-6,4c-.05.09-1.23,2-3.5,2-.1,0-2.34-.04-3.5-2-1.01-2.42-3.38-4-6-4s-5.02,1.65-6,4c-.05.09-1.22,2-3.5,2-.1,0-2.35-.04-3.5-2-1.01-2.42-3.38-4-6-4s-5.02,1.65-6,4c-.05.09-1.22,2-3.5,2-.1,0-2.35-.04-3.5-2-1.01-2.42-3.38-4-6-4s-5.02,1.65-6,4c-.05.09-1.22,2-3.5,2-.1,0-2.35-.04-3.5-2-1.01-2.42-3.38-4-6-4s-5.02,1.65-6,4c-.05.09-1.22,2-3.5,2-.1,0-2.35-.04-3.5-2-1.01-2.42-3.38-4-6-4s-5.02,1.65-6,4c-.05.09-1.22,2-3.5,2-.1,0-2.35-.04-3.5-2-1.01-2.42-3.38-4-6-4s-5.02,1.65-6,4c-.05.09-1.23,2-3.5,2-.1,0-2.35-.04-3.5-2-1.01-2.42-3.38-4-6-4s-5.02,1.65-6,4c-.05.09-1.23,2-3.5,2-.1,0-2.35-.04-3.5-2-1.01-2.42-3.38-4-6-4s-5.02,1.65-6,4c-.05.09-1.23,2-3.5,2-.1,0-2.35-.04-3.5-2-1.01-2.42-3.38-4-6-4s-5.02,1.65-6,4c-.05.09-1.23,2-3.5,2-.1,0-2.35-.04-3.5-2-1.01-2.42-3.38-4-6-4s-5.02,1.65-6,4c-.05.09-1.23,2-3.5,2-.1,0-2.35-.04-3.5-2-1.01-2.42-3.38-4-6-4s-5.02,1.65-6,4c-.05.09-1.23,2-3.5,2-.1,0-2.35-.04-3.5-2-1.01-2.42-3.38-4-6-4s-5.02,1.65-6,4c-.05.09-1.23,2-3.5,2-.1,0-2.35-.04-3.5-2-1.01-2.42-3.38-4-6-4s-5.02,1.65-6,4c-.05.09-1.23,2-3.5,2-.1,0-2.35-.04-3.5-2-1.01-2.42-3.38-4-6-4s-5.02,1.65-6,4c-.04.1-.78,1.74-2.5,2-1.4.21-2.85-.59-3.5-2-1.01-2.42-3.38-4-6-4s-5.02,1.65-6,4c-.05.09-1.23,2-3.5,2-.1,0-2.35-.04-3.5-2-1.01-2.42-3.38-4-6-4s-5.02,1.65-6,4c-.05.09-1.23,2-3.5,2-.1,0-2.35-.04-3.5-2-1.01-2.42-3.38-4-6-4s-5.02,1.65-6,4c-.05.09-1.23,2-3.5,2-.1,0-2.35-.04-3.5-2-1.01-2.42-3.38-4-6-4s-5.02,1.65-6,4c-.05.09-1.23,2-3.5,2-.1,0-2.35-.04-3.5-2-1.01-2.42-3.38-4-6-4s-5.02,1.65-6,4c-.05.09-1.23,2-3.5,2-.1,0-2.35-.04-3.5-2-1.01-2.42-3.38-4-6-4s-5.02,1.65-6,4c-.05.09-1.23,2-3.5,2-.1,0-2.35-.04-3.5-2-1.01-2.42-3.38-4-6-4s-5.02,1.65-6,4c-.05.09-1.23,2-3.5,2-.1,0-2.35-.04-3.5-2-1.01-2.42-3.38-4-6-4s-5.02,1.65-6,4c-.05.09-1.23,2-3.5,2-.1,0-2.35-.04-3.5-2-1.01-2.42-3.38-4-6-4s-5.02,1.65-6,4c-.05.09-1.23,2-3.5,2-.1,0-2.35-.04-3.5-2-1.01-2.42-3.38-4-6-4s-5.02,1.65-6,4c-.05.09-1.23,2-3.5,2-.1,0-2.35-.04-3.5-2-1.01-2.42-3.38-4-6-4s-5.02,1.65-6,4c-.05.09-1.23,2-3.5,2-.1,0-2.35-.04-3.5-2-1.01-2.42-3.38-4-6-4s-5.02,1.65-6,4c-.05.09-1.22,2-3.5,2-.1,0-2.34-.04-3.5-2-1.01-2.42-3.38-4-6-4s-5.02,1.65-6,4c-.05.09-1.22,2-3.5,2-.1,0-2.34-.04-3.5-2-1.01-2.42-3.38-4-6-4s-5.02,1.65-6,4c-.05.09-1.22,2-3.5,2-.1,0-2.34-.04-3.5-2-1.01-2.42-3.38-4-6-4s-5.02,1.65-6,4c-.05.09-1.22,2-3.5,2-.1,0-2.34-.04-3.5-2-1.01-2.42-3.38-4-6-4s-5.02,1.65-6,4c-.05.09-1.22,2-3.5,2-.1,0-2.34-.04-3.5-2-1.01-2.42-3.38-4-6-4s-5.02,1.65-6,4c-.05.09-1.22,2-3.5,2-.1,0-2.34-.04-3.5-2-1.01-2.42-3.38-4-6-4s-5.02,1.65-6,4c-.05.09-1.22,2-3.5,2-.1,0-2.34-.04-3.5-2-1.01-2.42-3.38-4-6-4s-5.02,1.65-6,4c-.05.09-1.22,2-3.5,2-.1,0-2.34-.04-3.5-2-1.01-2.42-3.38-4-6-4s-5.02,1.65-6,4c-.05.09-1.22,2-3.5,2-.1,0-2.34-.04-3.5-2-1.01-2.42-3.38-4-6-4s-5.02,1.65-6,4c-.05.09-1.22,2-3.5,2-.1,0-2.34-.04-3.5-2-1.01-2.42-3.38-4-6-4s-5.02,1.65-6,4c-.05.09-1.22,2-3.5,2-.1,0-2.34-.04-3.5-2-1.01-2.42-3.38-4-6-4s-5.02,1.65-6,4c-.05.09-1.22,2-3.5,2-.1,0-2.34-.04-3.5-2-1.01-2.42-3.38-4-6-4s-5.02,1.65-6,4c-.05.09-1.22,2-3.5,2-.1,0-2.34-.04-3.5-2-1.01-2.42-3.38-4-6-4s-5.02,1.65-6,4c-.05.09-1.22,2-3.5,2-.1,0-2.34-.04-3.5-2-1.01-2.42-3.38-4-6-4s-5.02,1.65-6,4c-.05.09-1.22,2-3.5,2-.1,0-2.34-.04-3.5-2-1.01-2.42-3.38-4-6-4s-5.02,1.65-6,4c-.05.09-1.22,2-3.5,2-.1,0-2.34-.04-3.5-2-1.01-2.42-3.38-4-6-4s-5.02,1.65-6,4c-.05.09-1.22,2-3.5,2-.1,0-2.34-.04-3.5-2-1.01-2.42-3.38-4-6-4s-5.02,1.65-6,4c-.05.09-1.22,2-3.5,2-.1,0-2.34-.04-3.5-2-1.01-2.42-3.38-4-6-4s-5.02,1.65-6,4c-.05.09-1.22,2-3.5,2-.1,0-2.34-.04-3.5-2-1.01-2.42-3.38-4-6-4s-5.02,1.65-6,4c-.05.09-1.22,2-3.5,2-.1,0-2.34-.04-3.5-2-1.01-2.42-3.38-4-6-4s-5.02,1.65-6,4c-.05.09-1.22,2-3.5,2-.1,0-2.34-.04-3.5-2-1.01-2.42-3.38-4-6-4s-5.02,1.65-6,4c-.05.09-1.22,2-3.5,2-.1,0-2.34-.04-3.5-2-1.01-2.42-3.38-4-6-4s-5.02,1.65-6,4c-.05.09-1.22,2-3.5,2-.1,0-2.34-.04-3.5-2-1.01-2.42-3.38-4-6-4s-5.02,1.65-6,4c-.05.09-1.22,2-3.5,2-.1,0-2.34-.04-3.5-2-1.01-2.42-3.38-4-6-4s-5.02,1.65-6,4c-.05.09-1.22,2-3.5,2-.1,0-2.34-.04-3.5-2-1.01-2.42-3.38-4-6-4s-5.02,1.65-6,4c-.05.09-1.22,2-3.5,2-.1,0-2.34-.04-3.5-2-1.01-2.42-3.38-4-6-4s-5.02,1.65-6,4c-.05.09-1.22,2-3.5,2-.1,0-2.34-.04-3.5-2-1.01-2.42-3.38-4-6-4s-5.02,1.65-6,4c-.05.09-1.22,2-3.5,2-.1,0-2.34-.04-3.5-2-1.01-2.42-3.38-4-6-4s-5.02,1.65-6,4c-.05.09-1.22,2-3.5,2-.1,0-2.34-.04-3.5-2-1.01-2.42-3.38-4-6-4s-5.02,1.65-6,4c-.05.09-1.22,2-3.5,2-.1,0-2.34-.04-3.5-2-1.01-2.42-3.38-4-6-4s-5.02,1.65-6,4c-.05.09-1.22,2-3.5,2-.1,0-2.34-.04-3.5-2-1.01-2.42-3.38-4-6-4s-5.02,1.65-6,4c-.05.09-1.22,2-3.5,2-.1,0-2.34-.04-3.5-2-1.01-2.42-3.38-4-6-4s-5.02,1.65-6,4c-.05.09-1.22,2-3.5,2-.1,0-2.34-.04-3.5-2-1.01-2.42-3.38-4-6-4s-5.02,1.65-6,4c-.05.09-1.22,2-3.5,2-.1,0-2.34-.04-3.5-2-1.01-2.42-3.38-4-6-4s-5.02,1.65-6,4c-.05.09-1.22,2-3.5,2-.1,0-2.34-.04-3.5-2-1.01-2.42-3.38-4-6-4s-5.02,1.65-6,4c-.05.09-1.22,2-3.5,2-.1,0-2.34-.04-3.5-2-1.01-2.42-3.38-4-6-4s-5.02,1.65-6,4c-.05.09-1.22,2-3.5,2-.1,0-2.34-.04-3.5-2-1.01-2.42-3.38-4-6-4s-5.02,1.65-6,4c-.05.09-1.22,2-3.5,2-.1,0-2.34-.04-3.5-2-1.01-2.42-3.38-4-6-4s-5.02,1.65-6,4c-.05.09-1.22,2-3.5,2-.1,0-2.34-.04-3.5-2-1.01-2.42-3.38-4-6-4s-5.02,1.65-6,4c-.04.1-.78,1.74-2.5,2-1.4.21-2.85-.59-3.5-2-1.01-2.42-3.38-4-6-4s-5.02,1.65-6,4c-.05.09-1.22,2-3.5,2-.1,0-2.34-.04-3.5-2-1.01-2.42-3.38-4-6-4s-5.02,1.65-6,4c-.05.09-1.22,2-3.5,2-.1,0-2.34-.04-3.5-2-1.01-2.42-3.38-4-6-4s-5.02,1.65-6,4c-.05.09-1.22,2-3.5,2-.1,0-2.34-.04-3.5-2-1.01-2.42-3.38-4-6-4s-5.02,1.65-6,4c-.05.09-1.22,2-3.5,2-.1,0-2.34-.04-3.5-2-1.01-2.42-3.38-4-6-4s-5.02,1.65-6,4c-.15.27-.93,1.61-2.5,2-1.63.4-3.46-.39-4.5-2-1.01-2.42-3.38-4-6-4s-5.02,1.65-6,4c-.05.09-1.22,2-3.5,2-.1,0-2.34-.04-3.5-2-1.01-2.42-3.38-4-6-4s-5.02,1.65-6,4c-.05.09-1.22,2-3.5,2-.1,0-2.34-.04-3.5-2-1.01-2.42-3.38-4-6-4s-5.02,1.65-6,4c-.15.27-.93,1.61-2.5,2-1.63.4-3.46-.39-4.5-2-1.01-2.42-3.38-4-6-4s-5.02,1.65-6,4c-.05.09-1.22,2-3.5,2-.1,0-2.34-.04-3.5-2-1.01-2.42-3.38-4-6-4s-5.02,1.65-6,4c-.05.09-1.22,2-3.5,2-.1,0-2.34-.04-3.5-2-1.01-2.42-3.38-4-6-4s-5.02,1.65-6,4c-.05.09-1.22,2-3.5,2-.1,0-2.34-.04-3.5-2-1.01-2.42-3.38-4-6-4s-5.02,1.65-6,4c-.05.09-1.22,2-3.5,2-.1,0-2.34-.04-3.5-2-1.01-2.42-3.38-4-6-4s-5.02,1.65-6,4c-.05.09-1.22,2-3.5,2-.1,0-2.34-.04-3.5-2-1.01-2.42-3.38-4-6-4s-5.02,1.65-6,4c-.05.09-1.22,2-3.5,2-.1,0-2.34-.04-3.5-2-1.01-2.42-3.38-4-6-4s-5.02,1.65-6,4c-.04.1-.78,1.74-2.5,2-1.4.21-2.85-.59-3.5-2-1.01-2.42-3.38-4-6-4s-5.02,1.65-6,4c-.05.09-1.22,2-3.5,2-.1,0-2.34-.04-3.5-2-1.01-2.42-3.38-4-6-4s-5.02,1.65-6,4c-.05.09-1.22,2-3.5,2-.1,0-2.34-.04-3.5-2-1.01-2.42-3.38-4-6-4s-5.02,1.65-6,4c-.05.09-1.22,2-3.5,2-.1,0-2.34-.04-3.5-2-1.01-2.42-3.38-4-6-4s-5.02,1.65-6,4c-.05.09-1.22,2-3.5,2-.1,0-2.34-.04-3.5-2-1.01-2.42-3.38-4-6-4s-5.02,1.65-6,4c-.05.09-1.22,2-3.5,2-.1,0-2.34-.04-3.5-2-1.01-2.42-3.38-4-6-4s-5.02,1.65-6,4c-.05.09-1.22,2-3.5,2-.1,0-2.34-.04-3.5-2-1.01-2.42-3.38-4-6-4s-5.02,1.65-6,4c-.05.09-1.22,2-3.5,2-.1,0-2.34-.04-3.5-2-1.01-2.42-3.38-4-6-4s-5.02,1.65-6,4c-.05.09-1.22,2-3.5,2-.1,0-2.34-.04-3.5-2-1.01-2.42-3.38-4-6-4s-5.02,1.65-6,4c-.05.09-1.22,2-3.5,2-.1,0-2.34-.04-3.5-2-1.01-2.42-3.38-4-6-4s-5.02,1.65-6,4c-.05.09-1.22,2-3.5,2-.1,0-2.34-.04-3.5-2-1.01-2.42-3.38-4-6-4s-5.02,1.65-6,4c-.05.09-1.22,2-3.5,2-.1,0-2.34-.04-3.5-2-1.01-2.42-3.38-4-6-4s-5.02,1.65-6,4c-.05.09-1.22,2-3.5,2-.1,0-2.34-.04-3.5-2-1.01-2.42-3.38-4-6-4s-5.02,1.65-6,4c-.05.09-1.22,2-3.5,2-.1,0-2.34-.04-3.5-2-1.01-2.42-3.38-4-6-4s-5.02,1.65-6,4c-.05.09-1.22,2-3.5,2-.1,0-2.34-.04-3.5-2-1.01-2.42-3.38-4-6-4s-5.02,1.65-6,4c-.05.09-1.22,2-3.5,2-.1,0-2.34-.04-3.5-2-1.01-2.42-3.38-4-6-4s-5.02,1.65-6,4c-.05.09-1.22,2-3.5,2-.1,0-2.34-.04-3.5-2-1.01-2.42-3.38-4-6-4s-5.02,1.65-6,4c-.05.09-1.22,2-3.5,2-.1,0-2.34-.04-3.5-2-1.01-2.42-3.38-4-6-4s-5.02,1.65-6,4c-.05.09-1.22,2-3.5,2-.1,0-2.34-.04-3.5-2-1.01-2.42-3.38-4-6-4s-5.02,1.65-6,4c-.05.09-1.22,2-3.5,2-.1,0-2.34-.04-3.5-2-2.22-2.58-4.6-4-6-4-1.29,0-2.49.38-3.5,1.02V6.32c.48.12.98.18,1.5.18,2.7,0,5.02-1.65,6-4,.04-.1.78-1.74,2.5-2,1.4-.21,2.85.59,3.5,2,1.01,2.42,3.38,4,6,4s5.02-1.65,6-4c.05-.09,1.23-2,3.5-2,.1,0,2.34.04,3.5,2,1.01,2.42,3.38,4,6,4s5.02-1.65,6-4c.05-.09,1.22-2,3.5-2,.1,0,2.35.04,3.5,2,1.01,2.42,3.38,4,6,4s5.02-1.65,6-4c.05-.09,1.22-2,3.5-2,.1,0,2.35.04,3.5,2,1.01,2.42,3.38,4,6,4s5.02-1.65,6-4c.05-.09,1.22-2,3.5-2,.1,0,2.35.04,3.5,2,1.01,2.42,3.38,4,6,4s5.02-1.65,6-4c.05-.09,1.22-2,3.5-2,.1,0,2.35.04,3.5,2,1.01,2.42,3.38,4,6,4s5.02-1.65,6-4c.05-.09,1.22-2,3.5-2,.1,0,2.35.04,3.5,2,1.01,2.42,3.38,4,6,4s5.02-1.65,6-4c.05-.09,1.23-2,3.5-2,.1,0,2.35.04,3.5,2,1.01,2.42,3.38,4,6,4s5.02-1.65,6-4c.05-.09,1.23-2,3.5-2,.1,0,2.35.04,3.5,2,1.01,2.42,3.38,4,6,4s5.02-1.65,6-4c.05-.09,1.23-2,3.5-2,.1,0,2.35.04,3.5,2,1.01,2.42,3.38,4,6,4s5.02-1.65,6-4c.05-.09,1.23-2,3.5-2,.1,0,2.35.04,3.5,2,1.01,2.42,3.38,4,6,4s5.02-1.65,6-4c.05-.09,1.23-2,3.5-2,.1,0,2.35.04,3.5,2,1.01,2.42,3.38,4,6,4s5.02-1.65,6-4c.05-.09,1.23-2,3.5-2,.1,0,2.35.04,3.5,2,1.01,2.42,3.38,4,6,4s5.02-1.65,6-4c.05-.09,1.23-2,3.5-2,.1,0,2.35.04,3.5,2,1.01,2.42,3.38,4,6,4s5.02-1.65,6-4c.05-.09,1.23-2,3.5-2,.1,0,2.35.04,3.5,2,1.01,2.42,3.38,4,6,4s5.02-1.65,6-4c.04-.1.78-1.74,2.5-2,1.4-.21,2.85.59,3.5,2,1.01,2.42,3.38,4,6,4s5.02-1.65,6-4c.05-.09,1.23-2,3.5-2,.1,0,2.35.04,3.5,2,1.01,2.42,3.38,4,6,4s5.02-1.65,6-4c.05-.09,1.23-2,3.5-2,.1,0,2.35.04,3.5,2,1.01,2.42,3.38,4,6,4s5.02-1.65,6-4c.05-.09,1.23-2,3.5-2,.1,0,2.35.04,3.5,2,1.01,2.42,3.38,4,6,4s5.02-1.65,6-4c.05-.09,1.23-2,3.5-2,.1,0,2.35.04,3.5,2,1.01,2.42,3.38,4,6,4s5.02-1.65,6-4c.05-.09,1.23-2,3.5-2,.1,0,2.35.04,3.5,2,1.01,2.42,3.38,4,6,4s5.02-1.65,6-4c.05-.09,1.23-2,3.5-2,.1,0,2.35.04,3.5,2,1.01,2.42,3.38,4,6,4s5.02-1.65,6-4c.05-.09,1.23-2,3.5-2,.1,0,2.35.04,3.5,2,1.01,2.42,3.38,4,6,4s5.02-1.65,6-4c.05-.09,1.23-2,3.5-2,.1,0,2.35.04,3.5,2,1.01,2.42,3.38,4,6,4s5.02-1.65,6-4c.05-.09,1.23-2,3.5-2,.1,0,2.35.04,3.5,2,1.01,2.42,3.38,4,6,4s5.02-1.65,6-4c.05-.09,1.23-2,3.5-2,.1,0,2.35.04,3.5,2,1.01,2.42,3.38,4,6,4s5.02-1.65,6-4c.05-.09,1.23-2,3.5-2,.1,0,2.35.04,3.5,2,1.01,2.42,3.38,4,6,4s5.02-1.65,6-4c.05-.09,1.22-2,3.5-2,.1,0,2.34.04,3.5,2,1.01,2.42,3.38,4,6,4s5.02-1.65,6-4c.05-.09,1.22-2,3.5-2,.1,0,2.34.04,3.5,2,1.01,2.42,3.38,4,6,4s5.02-1.65,6-4c.05-.09,1.22-2,3.5-2,.1,0,2.34.04,3.5,2,1.01,2.42,3.38,4,6,4s5.02-1.65,6-4c.05-.09,1.22-2,3.5-2,.1,0,2.34.04,3.5,2,1.01,2.42,3.38,4,6,4s5.02-1.65,6-4c.05-.09,1.22-2,3.5-2,.1,0,2.34.04,3.5,2,1.01,2.42,3.38,4,6,4s5.02-1.65,6-4c.05-.09,1.22-2,3.5-2,.1,0,2.34.04,3.5,2,1.01,2.42,3.38,4,6,4s5.02-1.65,6-4c.05-.09,1.22-2,3.5-2,.1,0,2.34.04,3.5,2,1.01,2.42,3.38,4,6,4s5.02-1.65,6-4c.05-.09,1.22-2,3.5-2,.1,0,2.34.04,3.5,2,1.01,2.42,3.38,4,6,4s5.02-1.65,6-4c.05-.09,1.22-2,3.5-2,.1,0,2.34.04,3.5,2,1.01,2.42,3.38,4,6,4s5.02-1.65,6-4c.05-.09,1.22-2,3.5-2,.1,0,2.34.04,3.5,2,1.01,2.42,3.38,4,6,4s5.02-1.65,6-4c.05-.09,1.22-2,3.5-2,.1,0,2.34.04,3.5,2,1.01,2.42,3.38,4,6,4s5.02-1.65,6-4c.05-.09,1.22-2,3.5-2,.1,0,2.34.04,3.5,2,1.01,2.42,3.38,4,6,4s5.02-1.65,6-4c.05-.09,1.22-2,3.5-2,.1,0,2.34.04,3.5,2,1.01,2.42,3.38,4,6,4s5.02-1.65,6-4c.05-.09,1.22-2,3.5-2,.1,0,2.34.04,3.5,2,1.01,2.42,3.38,4,6,4s5.02-1.65,6-4c.05-.09,1.22-2,3.5-2,.1,0,2.34.04,3.5,2,1.01,2.42,3.38,4,6,4s5.02-1.65,6-4c.05-.09,1.22-2,3.5-2,.1,0,2.34.04,3.5,2,1.01,2.42,3.38,4,6,4s5.02-1.65,6-4c.05-.09,1.22-2,3.5-2,.1,0,2.34.04,3.5,2,1.01,2.42,3.38,4,6,4s5.02-1.65,6-4c.05-.09,1.22-2,3.5-2,.1,0,2.34.04,3.5,2,1.01,2.42,3.38,4,6,4s5.02-1.65,6-4c.05-.09,1.22-2,3.5-2,.1,0,2.34.04,3.5,2,1.01,2.42,3.38,4,6,4s5.02-1.65,6-4c.05-.09,1.22-2,3.5-2,.1,0,2.34.04,3.5,2,1.01,2.42,3.38,4,6,4s5.02-1.65,6-4c.05-.09,1.22-2,3.5-2,.1,0,2.34.04,3.5,2,1.01,2.42,3.38,4,6,4s5.02-1.65,6-4c.05-.09,1.22-2,3.5-2,.1,0,2.34.04,3.5,2,1.01,2.42,3.38,4,6,4s5.02-1.65,6-4c.05-.09,1.22-2,3.5-2,.1,0,2.34.04,3.5,2,1.01,2.42,3.38,4,6,4s5.02-1.65,6-4c.05-.09,1.22-2,3.5-2,.1,0,2.34.04,3.5,2,1.01,2.42,3.38,4,6,4s5.02-1.65,6-4c.05-.09,1.22-2,3.5-2,.1,0,2.34.04,3.5,2,1.01,2.42,3.38,4,6,4s5.02-1.65,6-4c.05-.09,1.22-2,3.5-2,.1,0,2.34.04,3.5,2,1.01,2.42,3.38,4,6,4s5.02-1.65,6-4c.05-.09,1.22-2,3.5-2,.1,0,2.34.04,3.5,2,1.01,2.42,3.38,4,6,4s5.02-1.65,6-4c.05-.09,1.22-2,3.5-2,.1,0,2.34.04,3.5,2,1.01,2.42,3.38,4,6,4s5.02-1.65,6-4c.05-.09,1.22-2,3.5-2,.1,0,2.34.04,3.5,2,1.01,2.42,3.38,4,6,4s5.02-1.65,6-4c.05-.09,1.22-2,3.5-2,.1,0,2.34.04,3.5,2,1.01,2.42,3.38,4,6,4s5.02-1.65,6-4c.05-.09,1.22-2,3.5-2,.1,0,2.34.04,3.5,2,1.01,2.42,3.38,4,6,4s5.02-1.65,6-4c.05-.09,1.22-2,3.5-2,.1,0,2.34.04,3.5,2,1.01,2.42,3.38,4,6,4s5.02-1.65,6-4c.05-.09,1.22-2,3.5-2,.1,0,2.34.04,3.5,2,1.01,2.42,3.38,4,6,4s5.02-1.65,6-4c.05-.09,1.22-2,3.5-2,.1,0,2.34.04,3.5,2,1.01,2.42,3.38,4,6,4s5.02-1.65,6-4c.05-.09,1.22-2,3.5-2,.1,0,2.34.04,3.5,2,1.01,2.42,3.38,4,6,4s5.02-1.65,6-4c.05-.09,1.22-2,3.5-2,.1,0,2.34.04,3.5,2,1.01,2.42,3.38,4,6,4s5.02-1.65,6-4c.05-.09,1.22-2,3.5-2,.1,0,2.34.04,3.5,2,1.01,2.42,3.38,4,6,4s5.02-1.65,6-4c.05-.09,1.22-2,3.5-2,.1,0,2.34.04,3.5,2,1.01,2.42,3.38,4,6,4s5.02-1.65,6-4c.05-.09,1.22-2,3.5-2,.1,0,2.34.04,3.5,2,1.01,2.42,3.38,4,6,4s5.02-1.65,6-4c.04-.1.78-1.74,2.5-2,1.4-.21,2.85.59,3.5,2,1.01,2.42,3.38,4,6,4s5.02-1.65,6-4c.05-.09,1.22-2,3.5-2,.1,0,2.34.04,3.5,2,1.01,2.42,3.38,4,6,4s5.02-1.65,6-4c.05-.09,1.22-2,3.5-2,.1,0,2.34.04,3.5,2,1.01,2.42,3.38,4,6,4s5.02-1.65,6-4c.05-.09,1.22-2,3.5-2,.1,0,2.34.04,3.5,2,1.01,2.42,3.38,4,6,4s5.02-1.65,6-4c.05-.09,1.22-2,3.5-2,.1,0,2.34.04,3.5,2,1.01,2.42,3.38,4,6,4s5.02-1.65,6-4c.15-.27.93-1.61,2.5-2,1.63-.4,3.46.39,4.5,2,1.01,2.42,3.38,4,6,4s5.02-1.65,6-4c.05-.09,1.22-2,3.5-2,.1,0,2.34.04,3.5,2,1.01,2.42,3.38,4,6,4s5.02-1.65,6-4c.05-.09,1.22-2,3.5-2,.1,0,2.34.04,3.5,2,1.01,2.42,3.38,4,6,4s5.02-1.65,6-4c.15-.27.93-1.61,2.5-2,1.63-.4,3.46.39,4.5,2,1.01,2.42,3.38,4,6,4s5.02-1.65,6-4c.05-.09,1.22-2,3.5-2,.1,0,2.34.04,3.5,2,1.01,2.42,3.38,4,6,4s5.02-1.65,6-4c.05-.09,1.22-2,3.5-2,.1,0,2.34.04,3.5,2,1.01,2.42,3.38,4,6,4s5.02-1.65,6-4c.05-.09,1.22-2,3.5-2,.1,0,2.34.04,3.5,2,1.01,2.42,3.38,4,6,4s5.02-1.65,6-4c.05-.09,1.22-2,3.5-2,.1,0,2.34.04,3.5,2,1.01,2.42,3.38,4,6,4s5.02-1.65,6-4c.05-.09,1.22-2,3.5-2,.1,0,2.34.04,3.5,2,1.01,2.42,3.38,4,6,4s5.02-1.65,6-4c.05-.09,1.22-2,3.5-2,.1,0,2.34.04,3.5,2,1.01,2.42,3.38,4,6,4s5.02-1.65,6-4c.04-.1.78-1.74,2.5-2,1.4-.21,2.85.59,3.5,2,1.01,2.42,3.38,4,6,4s5.02-1.65,6-4c.05-.09,1.22-2,3.5-2,.1,0,2.34.04,3.5,2,1.01,2.42,3.38,4,6,4s5.02-1.65,6-4c.05-.09,1.22-2,3.5-2,.1,0,2.34.04,3.5,2,1.01,2.42,3.38,4,6,4s5.02-1.65,6-4c.05-.09,1.22-2,3.5-2,.1,0,2.34.04,3.5,2,1.01,2.42,3.38,4,6,4s5.02-1.65,6-4c.05-.09,1.22-2,3.5-2,.1,0,2.34.04,3.5,2,1.01,2.42,3.38,4,6,4s5.02-1.65,6-4c.05-.09,1.22-2,3.5-2,.1,0,2.34.04,3.5,2,1.01,2.42,3.38,4,6,4s5.02-1.65,6-4c.05-.09,1.22-2,3.5-2,.1,0,2.34.04,3.5,2,1.01,2.42,3.38,4,6,4s5.02-1.65,6-4c.05-.09,1.22-2,3.5-2,.1,0,2.34.04,3.5,2,1.01,2.42,3.38,4,6,4s5.02-1.65,6-4c.05-.09,1.22-2,3.5-2,.1,0,2.34.04,3.5,2,1.01,2.42,3.38,4,6,4s5.02-1.65,6-4c.05-.09,1.22-2,3.5-2,.1,0,2.34.04,3.5,2,1.01,2.42,3.38,4,6,4s5.02-1.65,6-4c.05-.09,1.22-2,3.5-2,.1,0,2.34.04,3.5,2,1.01,2.42,3.38,4,6,4s5.02-1.65,6-4c.05-.09,1.22-2,3.5-2,.1,0,2.34.04,3.5,2,1.01,2.42,3.38,4,6,4s5.02-1.65,6-4c.05-.09,1.22-2,3.5-2,.1,0,2.34.04,3.5,2,1.01,2.42,3.38,4,6,4s5.02-1.65,6-4c.05-.09,1.22-2,3.5-2,.1,0,2.34.04,3.5,2,1.01,2.42,3.38,4,6,4s5.02-1.65,6-4c.05-.09,1.22-2,3.5-2,.1,0,2.34.04,3.5,2,1.01,2.42,3.38,4,6,4s5.02-1.65,6-4c.05-.09,1.22-2,3.5-2,.1,0,2.34.04,3.5,2,1.01,2.42,3.38,4,6,4s5.02-1.65,6-4c.05-.09,1.22-2,3.5-2,.1,0,2.34.04,3.5,2,1.01,2.42,3.38,4,6,4s5.02-1.65,6-4c.05-.09,1.22-2,3.5-2,.1,0,2.34.04,3.5,2,1.01,2.42,3.38,4,6,4s5.02-1.65,6-4c.05-.09,1.22-2,3.5-2,.1,0,2.34.04,3.5,2,1.01,2.42,3.38,4,6,4s5.02-1.65,6-4c.05-.09,1.22-2,3.5-2,.1,0,2.34.04,3.5,2,2.22,2.58,4.6,4,6,4,1.29,0,2.49-.38,3.5-1.02Z"/>
</svg>